<?xml version="1.0" encoding="UTF-8"?>
<svg version="1.1" xmlns="http://www.w3.org/2000/svg" width="500" height="500">
<path d="M0 0 C8.21100391 6.34649647 13.22615598 16.64397645 15.1015625 26.6953125 C16.26056421 39.21551552 15.64314864 50.90810374 11.1015625 62.6953125 C10.7509375 63.68144531 10.4003125 64.66757813 10.0390625 65.68359375 C4.68503555 79.71932413 -3.67179889 93.69711869 -15.8984375 102.6953125 C-9.49636924 102.27395903 -3.18362784 101.63903403 3.15234375 100.6171875 C4.34537109 100.42640625 5.53839844 100.235625 6.76757812 100.0390625 C9.22010294 99.63972263 11.67064716 99.22804325 14.11914062 98.8046875 C25.45441194 97.03143484 25.45441194 97.03143484 31.1015625 100.6953125 C35.3520421 107.07103191 34.74899015 115.4973934 33.828125 122.890625 C33.12742882 125.94460268 32.03230527 127.77475462 29.9765625 130.1328125 C23.99435202 133.38401385 16.48169825 131.45843695 10.0078125 130.3828125 C9.17568237 130.24963623 8.34355225 130.11645996 7.48620605 129.97924805 C4.85701092 129.5571029 2.22931125 129.12635973 -0.3984375 128.6953125 C-2.19261609 128.40567804 -3.98688623 128.11661002 -5.78125 127.828125 C-10.15473108 127.12372983 -14.52689333 126.41162595 -18.8984375 125.6953125 C-14.73420392 162.57529498 -14.73420392 162.57529498 -7.33837891 198.92138672 C-6.06475858 204.05686134 -6.20830121 208.36433536 -8.6484375 213.0703125 C-13.62899168 218.14963121 -22.12197141 218.80757391 -28.8984375 219.0703125 C-36.04195757 218.80488284 -43.02589948 217.46302821 -49.1484375 213.6953125 C-53.9234126 205.5096409 -50.0181494 194.29210934 -48.13458252 185.53192139 C-44.8235105 170.04325442 -42.61050027 154.60214862 -41.05371094 138.84594727 C-40.98064728 138.11071335 -40.90758362 137.37547943 -40.83230591 136.6179657 C-40.63783977 134.6311791 -40.45262523 132.64349311 -40.26806641 130.65576172 C-39.8984375 127.6953125 -39.8984375 127.6953125 -38.8984375 125.6953125 C-40.6155896 125.96794922 -40.6155896 125.96794922 -42.36743164 126.24609375 C-46.636283 126.92241031 -50.90622104 127.59163857 -55.17651367 128.25878906 C-57.0205653 128.54788721 -58.86432137 128.83887755 -60.70776367 129.13183594 C-63.36560841 129.55387556 -66.02446032 129.96898002 -68.68359375 130.3828125 C-69.50054214 130.51405518 -70.31749054 130.64529785 -71.15919495 130.78051758 C-83.02288222 132.60693698 -83.02288222 132.60693698 -86.859375 130.7421875 C-91.22304196 126.7401504 -91.80437261 124.77567793 -92.06640625 118.98046875 C-92.07830076 117.57295187 -92.08465439 116.16537905 -92.0859375 114.7578125 C-92.09818359 114.05462891 -92.11042969 113.35144531 -92.12304688 112.62695312 C-92.1369388 107.68605707 -91.53678795 103.98900313 -88.6484375 99.9453125 C-84.02560595 96.64328997 -78.31806383 97.82596179 -73.05078125 98.69140625 C-72.31646378 98.80380142 -71.5821463 98.91619659 -70.82557678 99.03199768 C-68.49423228 99.39015245 -66.16509695 99.76073537 -63.8359375 100.1328125 C-61.50296188 100.49935066 -59.16961882 100.86316655 -56.83558655 101.22291565 C-55.38799133 101.44666319 -53.94103453 101.67459385 -52.49485779 101.90733337 C-48.92750368 102.46503565 -45.50994984 102.82159527 -41.8984375 102.6953125 C-42.383125 102.30601562 -42.8678125 101.91671875 -43.3671875 101.515625 C-60.12758253 87.52714145 -71.77069435 65.54689691 -73.8984375 43.6953125 C-75.02664689 29.93115794 -71.7601251 15.69286855 -63.3046875 4.60546875 C-46.54158153 -13.46231292 -19.44473751 -13.36325582 0 0 Z M-57.8984375 7.6953125 C-66.74928381 18.63378533 -69.15981785 30.86413028 -67.8984375 44.6953125 C-64.63243735 65.75012683 -54.0128832 85.81215935 -37.42578125 99.3125 C-35.3309033 101.20914141 -34.492048 102.94986391 -33.8984375 105.6953125 C-33.8984375 107.0153125 -33.8984375 108.3353125 -33.8984375 109.6953125 C-40.76271632 109.26384831 -47.53775983 108.51405164 -54.33203125 107.46875 C-55.06418854 107.35638 -55.79634583 107.24401001 -56.5506897 107.12823486 C-59.58616927 106.65891379 -62.62072368 106.18420437 -65.65405273 105.70117188 C-67.89977822 105.34531918 -70.14694433 105.00011986 -72.39453125 104.65625 C-73.07478867 104.54485687 -73.75504608 104.43346375 -74.45591736 104.31869507 C-78.20175577 103.75266092 -81.23545677 103.68522982 -84.8984375 104.6953125 C-87.20346114 110.79684567 -87.16193819 116.29629288 -85.8984375 122.6953125 C-85.2384375 123.6853125 -84.5784375 124.6753125 -83.8984375 125.6953125 C-73.33135853 125.30466263 -63.01008018 123.75040358 -52.58276367 122.06738281 C-46.26296017 121.07557721 -40.29572188 120.48456243 -33.8984375 120.6953125 C-35.26486348 146.31819969 -38.34897383 171.80134809 -44.4621582 196.75683594 C-45.99535558 202.73378537 -45.99535558 202.73378537 -44.8984375 208.6953125 C-38.35023247 213.6507109 -30.78778029 213.23845279 -22.8984375 212.6953125 C-17.4777721 211.57177427 -17.4777721 211.57177427 -12.8984375 208.6953125 C-12.36846826 201.36407129 -14.04347247 194.69243452 -15.6484375 187.5703125 C-20.40208701 165.50009839 -23.3997761 143.28467378 -23.8984375 120.6953125 C-15.2111889 120.30355383 -6.87322525 121.79883004 1.6640625 123.1953125 C3.87454831 123.5560204 6.08526738 123.91445537 8.29734802 124.26525879 C10.30146537 124.58308653 12.30422443 124.90944528 14.30688477 125.23632812 C18.31031019 125.72056153 22.07496411 125.77351515 26.1015625 125.6953125 C28.37968891 122.06483216 28.40062492 118.92367206 28.4140625 114.6953125 C28.43919922 112.87 28.43919922 112.87 28.46484375 111.0078125 C28.27553757 107.75742618 28.27553757 107.75742618 27.01953125 105.2265625 C25.11134008 103.38922081 25.11134008 103.38922081 22.0390625 103.6015625 C20.7396875 103.7975 19.4403125 103.9934375 18.1015625 104.1953125 C17.38258789 104.2969873 16.66361328 104.39866211 15.92285156 104.50341797 C13.31204843 104.87861999 10.7074736 105.28753076 8.1015625 105.6953125 C4.56829611 106.22602102 1.03425482 106.7513068 -2.5 107.27539062 C-4.9072071 107.6349253 -7.31349454 108.00067965 -9.71875 108.37304688 C-10.83507812 108.54384766 -11.95140625 108.71464844 -13.1015625 108.890625 C-14.09833008 109.04547363 -15.09509766 109.20032227 -16.12207031 109.35986328 C-18.74752859 109.67707922 -21.25729583 109.75744991 -23.8984375 109.6953125 C-23.77120484 104.82866316 -23.55329576 101.86593957 -20.0546875 98.34375 C-18.84838314 97.23886061 -17.62889741 96.14823606 -16.3984375 95.0703125 C-1.08307697 80.68881542 9.45653466 59.94249506 10.3515625 38.6953125 C10.15266571 26.90073285 7.08390352 16.18463158 -0.97265625 7.4453125 C-10.38606572 -1.4916766 -20.07532792 -3.81870144 -32.71484375 -3.578125 C-42.51114609 -3.12848786 -51.07479439 0.64901693 -57.8984375 7.6953125 Z " fill="#F1BE52" transform="translate(283.8984375,145.3046875)"/>
<path d="M0 0 C6.48210535 6.20091813 9.53197087 13.06140089 10.23828125 22.0234375 C10.65165386 40.69047433 3.54506069 59.11489874 -9 73 C-9.5878125 73.67933594 -10.175625 74.35867187 -10.78125 75.05859375 C-13.36250872 77.87193933 -15.43035488 79.74547771 -18.9375 81.3125 C-24.93108715 80.70090947 -28.4218003 76.79860345 -32.265625 72.41796875 C-45.11452503 56.09462126 -52.30025 37.80878787 -50 17 C-49.14907346 13.28231559 -47.93879118 10.27171012 -46 7 C-45.649375 6.34902344 -45.29875 5.69804687 -44.9375 5.02734375 C-41.31034508 -0.90456585 -35.92728978 -3.74660965 -29.4296875 -5.8203125 C-19.20988637 -8.17414425 -8.1186732 -7.02506197 0 0 Z M-40 8 C-45.46683879 16.22518299 -45.96037372 26.27854484 -44.08911133 35.75512695 C-40.68228213 50.39857851 -32.79860912 66.46759392 -20 75 C-8.05981617 66.34580681 0.62305891 50.70498446 3.71484375 36.38671875 C5.08686031 24.90312807 4.75071509 15.12595346 -2.375 5.625 C-7.51520404 0.48479596 -12.713844 -0.78092293 -19.75 -1.25 C-27.77859247 -1.0988024 -34.78014537 1.83108089 -40 8 Z " fill="#F1BE52" transform="translate(275,157)"/>
</svg>
